<svg xmlns="http://www.w3.org/2000/svg" width="160" height="29" viewBox="0 0 160 29" role="img" aria-label="ACTIVITY">
<g transform="translate(4 25.0)"><path d="M1.7 -13.4C1.6 -12.7 1.6 -13.9 1.6 -0H4.5V-7.8H15.7V-0H18.5C18.5 -9.6 18.5 -13.1 18.5 -13.1C18.3 -17.5 14.7 -21.1 10.1 -21.1C5.6 -21.1 2 -17.7 1.7 -13.4ZM15.7 -10.7H4.5V-12.7C4.5 -15.7 7 -18.3 10.1 -18.3C13.1 -18.3 15.4 -15.9 15.6 -13.1C15.7 -12.9 15.7 -12.8 15.7 -10.7ZM25.7 -12C25.7 -11.1 25.7 -10.3 25.7 -9.5C25.7 -7.4 25.8 -5.5 27.1 -3.7C28.5 -1.5 31 -0 34.1 -0H41V-2.9H34.1C32.7 -2.9 31.4 -3.3 30.4 -4.2C28.1 -6.2 28.5 -8.6 28.5 -10.6C28.5 -12.6 28.1 -14.8 30.4 -16.8C31.4 -17.7 32.7 -18.2 34.1 -18.2H41V-21H34.1C32.6 -21 31.2 -20.7 30 -20C28.8 -19.3 27.8 -18.4 27.1 -17.3C26 -15.6 25.6 -13.9 25.7 -12ZM53.2 -0H56.1V-3C56.1 -6.2 56.1 -14.9 56.1 -18.2C61.3 -18.2 57 -18.2 63.1 -18.2V-21C59.4 -21 49.8 -21 46.1 -21V-18.2C52.6 -18.2 46.1 -18.2 53.2 -18.2ZM72.4 -21H69.5L69.5 -0C69.8 -0 72 -0 72.4 -0ZM96.9 -20.3 94.2 -21.3C89.9 -9.5 88.5 -5.7 88.1 -4.6C88 -4.3 87.6 -4.3 87.5 -4.6C87.1 -5.7 85.7 -9.6 81.4 -21.3L78.8 -20.3L85.6 -1.6C86 -0.6 86.8 -0 87.8 -0C88.8 -0 89.7 -0.6 90 -1.6ZM106.2 -21H103.3L103.3 -0C103.6 -0 105.9 -0 106.2 -0ZM119.6 -0H122.5V-3C122.5 -6.2 122.5 -14.9 122.5 -18.2C127.7 -18.2 123.4 -18.2 129.6 -18.2V-21C125.8 -21 116.2 -21 112.5 -21V-18.2C119 -18.2 112.5 -18.2 119.6 -18.2ZM151.6 -21H148.7C148.7 -19.3 148.7 -17.6 148.7 -15.6C148.6 -14.1 148.1 -12.9 147 -11.9C145.9 -10.9 144.7 -10.4 143.2 -10.4C141.8 -10.4 140.6 -10.9 139.6 -11.8C138.2 -13 137.6 -14.5 137.6 -16C137.6 -18.5 137.6 -17.3 137.6 -21H134.8C134.8 -15.7 134.8 -15.6 134.8 -15.3C135 -13.1 135.9 -11.3 137.5 -9.8C138.8 -8.7 140.2 -8 141.8 -7.7L141.8 -0C142.1 -0 144.3 -0 144.6 -0V-7.7C146.3 -8 147.7 -8.7 149 -9.9C150.7 -11.6 151.6 -13.6 151.6 -16L151.6 -21Z" fill="#1F2328"/></g>
</svg>
